<?xml version="1.0" encoding="utf-8"?>
<!-- Generator: Adobe Illustrator 24.0.0, SVG Export Plug-In . SVG Version: 6.00 Build 0)  -->
<svg version="1.1" id="Layer_1" xmlns="http://www.w3.org/2000/svg" xmlns:xlink="http://www.w3.org/1999/xlink" x="0px" y="0px"
	 viewBox="0 0 26 26" style="enable-background:new 0 0 26 26;" xml:space="preserve">
<style type="text/css">
	.st0{fill-rule:evenodd;clip-rule:evenodd;fill:#FFFFFF;}
</style>
<title>Group 5</title>
<desc>Created with Sketch.</desc>
<g id="Page-1">
	<g id="Carro-Compra-V1-UI-Desktop-1" transform="translate(-94.000000, -201.000000)">
		<g id="_x31_-Iconos_x2F_carrito_1_" transform="translate(94.000000, 200.000000)">
			<path id="Combined-Shape_1_" class="st0" d="M19.9,21c1.4,0,2.5,1.1,2.5,2.5c0,1.4-1.1,2.5-2.5,2.5s-2.5-1.1-2.5-2.5
				C17.4,22.1,18.5,21,19.9,21z M12,21c1.4,0,2.5,1.1,2.5,2.5c0,1.4-1.1,2.5-2.5,2.5s-2.5-1.1-2.5-2.5C9.5,22.1,10.6,21,12,21z
				 M19.9,22.1c-0.7,0-1.3,0.6-1.3,1.3c0,0.7,0.6,1.3,1.3,1.3c0.7,0,1.3-0.6,1.3-1.3C21.2,22.7,20.6,22.1,19.9,22.1z M12,22.1
				c-0.7,0-1.3,0.6-1.3,1.3c0,0.7,0.6,1.3,1.3,1.3c0.7,0,1.3-0.6,1.3-1.3C13.3,22.7,12.7,22.1,12,22.1z M2.8,2.1
				c1.5,0,3,1.3,3.4,2.9l0.6,2h17.6c0.6,0,1,0.2,1.3,0.6C26,8,26.1,8.5,25.9,9l-2.7,9.2c-0.3,1-1.3,1.8-2.4,1.8h-9.8
				c-1,0-2.1-0.8-2.4-1.8l-3-10.5L5,5.3c-0.3-1.1-1.4-2-2.3-2l-2.2,0C0.3,3.2,0,3,0,2.6c0-0.3,0.3-0.6,0.6-0.6L2.8,2.1z M24.3,8.1
				H7.1l2.8,9.8c0.1,0.5,0.7,0.9,1.2,0.9h9.8c0.5,0,1.1-0.4,1.2-0.9l2.7-9.2c0.1-0.2,0-0.3,0-0.4C24.7,8.2,24.5,8.1,24.3,8.1z"/>
		</g>
	</g>
</g>
</svg>
